<svg width="24" height="24" viewBox="0 0 24 24" fill="none" xmlns="http://www.w3.org/2000/svg">
<path d="M18.3282 22.4997C17.4132 22.4997 16.1279 22.1688 14.2032 21.0934C11.8627 19.7809 10.0524 18.5692 7.72457 16.2475C5.48019 14.0045 4.38801 12.5523 2.85941 9.77078C1.13254 6.63016 1.42691 4.98391 1.75597 4.28031C2.14785 3.43937 2.72629 2.93641 3.47394 2.43719C3.89861 2.15895 4.34801 1.92045 4.81644 1.72469C4.86332 1.70453 4.90691 1.68531 4.94582 1.66797C5.17785 1.56344 5.52941 1.40547 5.97472 1.57422C6.27191 1.68578 6.53722 1.91406 6.95254 2.32422C7.80426 3.16422 8.96816 5.035 9.39754 5.95375C9.68582 6.57297 9.8766 6.98172 9.87707 7.44016C9.87707 7.97688 9.60707 8.39078 9.27941 8.8375C9.21801 8.92141 9.15707 9.00156 9.09801 9.07938C8.74129 9.54813 8.66301 9.68359 8.71457 9.92547C8.8191 10.4116 9.59863 11.8586 10.8797 13.1369C12.1608 14.4152 13.5661 15.1455 14.0541 15.2495C14.3063 15.3034 14.4446 15.2219 14.9283 14.8525C14.9977 14.7995 15.0689 14.7447 15.1435 14.6898C15.6432 14.3181 16.0379 14.0552 16.5619 14.0552H16.5647C17.0208 14.0552 17.4113 14.253 18.0582 14.5792C18.9019 15.0048 20.8289 16.1538 21.6741 17.0064C22.0852 17.4208 22.3144 17.6852 22.4264 17.9819C22.5952 18.4286 22.4363 18.7788 22.3327 19.0131C22.3154 19.052 22.2961 19.0947 22.276 19.142C22.0787 19.6096 21.8388 20.0581 21.5593 20.4817C21.061 21.227 20.5561 21.8041 19.7133 22.1964C19.2805 22.4011 18.8069 22.5048 18.3282 22.4997Z"/>
</svg>
