<svg width="22" height="18" viewBox="0 0 22 18" fill="none" xmlns="http://www.w3.org/2000/svg">
<path d="M20.75 0.749542H1.25002C1.05111 0.749542 0.860345 0.82856 0.719693 0.969212C0.57904 1.10986 0.500023 1.30063 0.500023 1.49954V16.4995C0.500023 16.6985 0.57904 16.8892 0.719693 17.0299C0.860345 17.1705 1.05111 17.2495 1.25002 17.2495H20.75C20.9489 17.2495 21.1397 17.1705 21.2804 17.0299C21.421 16.8892 21.5 16.6985 21.5 16.4995V1.49954C21.5 1.30063 21.421 1.10986 21.2804 0.969212C21.1397 0.82856 20.9489 0.749542 20.75 0.749542ZM11.4603 10.3416C11.3287 10.4439 11.1667 10.4994 11 10.4994C10.8333 10.4994 10.6713 10.4439 10.5397 10.3416L3.19768 4.63126L4.1183 3.4472L11 8.79939L17.8817 3.4472L18.8024 4.63126L11.4603 10.3416Z"/>
</svg>
