<svg width="24" height="24" viewBox="0 0 24 24" fill="none" xmlns="http://www.w3.org/2000/svg">
<path d="M2.96625 9.46631C2.83977 9.46746 2.71524 9.43511 2.60531 9.37256C2.52468 9.32724 2.45389 9.26629 2.3971 9.19328C2.34031 9.12027 2.29864 9.03667 2.27455 8.94736C2.25046 8.85806 2.24441 8.76484 2.25678 8.67318C2.26914 8.58151 2.29967 8.49323 2.34656 8.4135C3.25031 6.90506 6 3.38428 12 3.38428C14.6002 3.38428 16.8806 4.06725 18.7748 5.4135C20.3339 6.51834 21.2077 7.76897 21.6239 8.37131C21.6767 8.44723 21.7138 8.53295 21.7329 8.62342C21.7521 8.71389 21.753 8.80727 21.7355 8.89808C21.718 8.98889 21.6826 9.07529 21.6312 9.15219C21.5798 9.22908 21.5136 9.29493 21.4364 9.34584C21.2786 9.45013 21.0865 9.48889 20.9006 9.45389C20.7147 9.41888 20.5498 9.31288 20.4408 9.15834C19.6875 8.07506 17.3906 4.77881 12 4.77881C6.73828 4.77881 4.35937 7.81209 3.58453 9.11287C3.52227 9.2215 3.43214 9.31153 3.32345 9.37366C3.21475 9.43579 3.09144 9.46778 2.96625 9.46631Z" fill="#E51300"/>
<path d="M15.023 23.2478C14.9631 23.2485 14.9034 23.2417 14.8453 23.2277C10.4929 22.1495 8.86779 17.7986 8.8017 17.6177L8.79139 17.5778C8.75576 17.4522 7.88248 14.4686 9.2231 12.7211C9.83764 11.9242 10.7723 11.5155 12.0065 11.5155C13.154 11.5155 13.9819 11.8722 14.5509 12.6105C15.0197 13.2133 15.2072 13.9567 15.3886 14.673C15.7697 16.1645 16.0448 16.9478 17.6287 17.0284C18.3244 17.0636 18.7814 16.6567 19.0406 16.3103C19.7414 15.3658 19.8633 13.8259 19.335 12.4666C18.6562 10.712 16.2473 7.40405 12 7.40405C10.1869 7.40405 8.52092 7.98671 7.18498 9.08171C6.0792 9.98874 5.2031 11.2694 4.78123 12.5856C3.99888 15.0362 5.02498 18.8884 5.03482 18.9236C5.05878 19.0132 5.06455 19.1068 5.05178 19.1987C5.03901 19.2906 5.00796 19.3791 4.96048 19.4588C4.91299 19.5385 4.85002 19.6079 4.77527 19.6629C4.70053 19.7179 4.61553 19.7574 4.52529 19.7791C4.34298 19.8275 4.14893 19.8027 3.98472 19.7098C3.82052 19.6169 3.69923 19.4634 3.64685 19.2822C3.59998 19.1064 2.50404 14.9978 3.40779 12.1656C4.39217 9.09671 7.43014 6.00296 12.0014 6.00296C14.114 6.00296 16.11 6.72109 17.7759 8.07718C19.0659 9.13187 20.1197 10.5484 20.6709 11.9645C21.3717 13.7725 21.1837 15.8017 20.1933 17.1273C19.5333 18.0114 18.5934 18.4736 17.5523 18.4234C14.8401 18.2875 14.3526 16.3942 13.9973 15.0133C13.6317 13.5967 13.3978 12.9137 12.0014 12.9137C11.2345 12.9137 10.6959 13.1247 10.3608 13.5616C9.90373 14.1592 9.86811 15.0934 9.91873 15.7712C9.95196 16.2435 10.032 16.7112 10.1578 17.1677C10.2694 17.4489 11.722 21.0114 15.2011 21.8734C15.291 21.8947 15.3758 21.9337 15.4505 21.988C15.5253 22.0424 15.5885 22.1111 15.6364 22.19C15.6844 22.269 15.7162 22.3568 15.73 22.4481C15.7438 22.5395 15.7393 22.6327 15.7167 22.7223C15.6742 22.8736 15.5835 23.0069 15.4582 23.1018C15.3329 23.1966 15.1801 23.2479 15.023 23.2478Z" fill="#E51300"/>
<path d="M9.43642 22.925C9.33887 22.9252 9.24228 22.9058 9.1524 22.8679C9.06253 22.8299 8.98121 22.7743 8.9133 22.7043C7.17142 20.8761 6.18611 18.8319 5.81533 16.2758V16.2622C5.60721 14.57 5.91189 12.1743 7.40486 10.5271C8.50689 9.3116 10.0561 8.69379 12.0014 8.69379C14.3021 8.69379 16.11 9.76347 17.2374 11.7824C18.0553 13.2491 18.2175 14.7107 18.2217 14.7707C18.2303 14.8632 18.2206 14.9565 18.193 15.0452C18.1655 15.1339 18.1207 15.2164 18.0613 15.2878C18.0019 15.3592 17.9289 15.4182 17.8467 15.4613C17.7644 15.5045 17.6744 15.5311 17.5819 15.5394C17.3952 15.5597 17.208 15.5057 17.0608 15.3891C16.9135 15.2726 16.818 15.1028 16.7949 14.9164C16.6714 14.0395 16.3876 13.1927 15.9577 12.4185C15.0839 10.8768 13.7546 10.093 11.9963 10.093C10.4775 10.093 9.28924 10.55 8.47174 11.4524C7.2933 12.7532 7.06549 14.7571 7.22721 16.0827C7.55205 18.343 8.42064 20.1411 9.95439 21.748C10.0184 21.8146 10.0684 21.8934 10.1013 21.9797C10.1343 22.066 10.1496 22.158 10.1462 22.2503C10.1429 22.3426 10.1211 22.4333 10.082 22.517C10.0429 22.6007 9.98741 22.6757 9.91877 22.7375C9.78659 22.8574 9.61482 22.9241 9.43642 22.925Z" fill="#E51300"/>
<path d="M17.4609 20.9123C15.9375 20.9123 14.6423 20.4904 13.6059 19.6518C11.5237 17.9741 11.2903 15.2418 11.28 15.1265C11.2653 14.9372 11.3264 14.7498 11.4499 14.6056C11.5734 14.4614 11.7491 14.3722 11.9383 14.3575C12.1276 14.3428 12.315 14.4039 12.4592 14.5274C12.6034 14.6509 12.6927 14.8266 12.7073 15.0158C12.7125 15.0562 12.9206 17.2912 14.5256 18.5783C15.4753 19.3368 16.7447 19.6377 18.3089 19.4619C18.4958 19.4393 18.6842 19.4915 18.8327 19.6073C18.9812 19.7231 19.0779 19.8929 19.1016 20.0798C19.1118 20.172 19.1035 20.2654 19.0773 20.3545C19.0511 20.4436 19.0073 20.5265 18.9487 20.5985C18.89 20.6705 18.8177 20.7301 18.7357 20.7739C18.6538 20.8176 18.564 20.8445 18.4716 20.8532C18.1361 20.8923 17.7987 20.912 17.4609 20.9123ZM18.6647 2.28459C18.0703 1.89787 15.9628 0.747559 12 0.747559C7.8403 0.747559 5.72764 2.01834 5.2603 2.34131C5.22944 2.36025 5.20054 2.38224 5.17405 2.40693C5.17126 2.40964 5.16761 2.41129 5.16374 2.41162C5.08911 2.47678 5.02923 2.5571 4.98809 2.64722C4.94694 2.73735 4.92549 2.83521 4.92514 2.93428C4.92643 3.02715 4.94602 3.11885 4.98281 3.20413C5.01959 3.28941 5.07284 3.3666 5.13951 3.43126C5.20618 3.49592 5.28495 3.5468 5.37132 3.58097C5.45768 3.61513 5.54994 3.63192 5.6428 3.63037C5.79164 3.63027 5.9369 3.58464 6.05905 3.49959C6.07921 3.48459 7.89749 2.14865 12.0014 2.14865C16.1053 2.14865 17.9334 3.4799 17.9531 3.48975C18.0779 3.58229 18.2295 3.63166 18.3848 3.63037C18.4778 3.6318 18.5701 3.61485 18.6565 3.58051C18.7428 3.54617 18.8216 3.49511 18.8882 3.43026C18.9548 3.36541 19.0079 3.28805 19.0445 3.20261C19.0811 3.11718 19.1005 3.02535 19.1016 2.9324C19.1016 2.79318 19.06 2.65712 18.9822 2.54169C18.9043 2.42626 18.7938 2.33673 18.6647 2.28459Z" fill="#E51300"/>
</svg>
