<svg width="24" height="24" viewBox="0 0 24 24" fill="none" xmlns="http://www.w3.org/2000/svg">
<path d="M2.62495 12.0013H4.49995M11.9999 4.50128V2.62628V4.50128ZM11.9999 21.3763V19.5013V21.3763ZM11.9999 5.25128C10.6649 5.25128 9.35988 5.64716 8.24985 6.38886C7.13982 7.13056 6.27465 8.18477 5.76376 9.41817C5.25287 10.6516 5.1192 12.0088 5.37965 13.3181C5.6401 14.6275 6.28297 15.8302 7.22698 16.7743C8.17098 17.7183 9.37372 18.3611 10.6831 18.6216C11.9925 18.882 13.3497 18.7484 14.5831 18.2375C15.8165 17.7266 16.8707 16.8614 17.6124 15.7514C18.3541 14.6413 18.7499 13.3363 18.7499 12.0013C18.7499 10.2111 18.0388 8.49418 16.7729 7.22831C15.507 5.96244 13.7902 5.25128 11.9999 5.25128ZM19.4999 12.0013H21.3749H19.4999Z" stroke="#666666" stroke-width="2.25" stroke-linecap="round" stroke-linejoin="round"/>
</svg>
