<svg width="24" height="24" viewBox="0 0 24 24" fill="none" xmlns="http://www.w3.org/2000/svg">
<path d="M12.0001 1.49947C7.85961 1.49947 4.50008 4.52338 4.50008 8.24947C4.50008 14.2495 12.0001 22.4995 12.0001 22.4995C12.0001 22.4995 19.5001 14.2495 19.5001 8.24947C19.5001 4.52338 16.1405 1.49947 12.0001 1.49947ZM12.0001 11.9995C11.4067 11.9995 10.8267 11.8235 10.3334 11.4939C9.84002 11.1642 9.4555 10.6957 9.22844 10.1475C9.00138 9.59935 8.94197 8.99615 9.05772 8.4142C9.17348 7.83226 9.4592 7.29771 9.87876 6.87815C10.2983 6.4586 10.8329 6.17287 11.4148 6.05712C11.9968 5.94136 12.5999 6.00077 13.1481 6.22784C13.6963 6.4549 14.1648 6.83942 14.4945 7.33276C14.8241 7.82611 15.0001 8.40613 15.0001 8.99947C14.9992 9.79486 14.6829 10.5574 14.1204 11.1198C13.558 11.6823 12.7955 11.9986 12.0001 11.9995Z"/>
</svg>
