<svg width="24" height="24" viewBox="0 0 24 24" fill="none" xmlns="http://www.w3.org/2000/svg">
<path d="M17.2499 8.99677H16.4999V5.24677C16.4999 4.0533 16.0258 2.90871 15.1819 2.06479C14.3379 1.22088 13.1933 0.746773 11.9999 0.746773C10.8064 0.746773 9.66181 1.22088 8.81789 2.06479C7.97398 2.90871 7.49987 4.0533 7.49987 5.24677V8.99677H6.74987C5.95449 8.99764 5.19193 9.31399 4.62951 9.87641C4.06709 10.4388 3.75074 11.2014 3.74987 11.9968V20.2468C3.75074 21.0422 4.06709 21.8047 4.62951 22.3671C5.19193 22.9296 5.95449 23.2459 6.74987 23.2468H17.2499C18.0453 23.2459 18.8078 22.9296 19.3702 22.3671C19.9327 21.8047 20.249 21.0422 20.2499 20.2468V11.9968C20.249 11.2014 19.9327 10.4388 19.3702 9.87641C18.8078 9.31399 18.0453 8.99764 17.2499 8.99677V8.99677ZM14.9999 8.99677H8.99987V5.24677C8.99987 4.45112 9.31594 3.68806 9.87855 3.12545C10.4412 2.56284 11.2042 2.24677 11.9999 2.24677C12.7955 2.24677 13.5586 2.56284 14.1212 3.12545C14.6838 3.68806 14.9999 4.45112 14.9999 5.24677V8.99677Z"/>
</svg>
