<svg width="24" height="25" viewBox="0 0 24 25" fill="none" xmlns="http://www.w3.org/2000/svg">
<path d="M11.3081 15.2449C10.59 14.7593 9.8672 14.2807 9.14908 13.7951C9.05533 13.7304 8.9883 13.7257 8.89127 13.7951L7.06877 15.0195C8.53127 15.993 11.4375 17.9346 11.4375 17.9346V15.4132C11.4375 15.356 11.3649 15.2829 11.3081 15.2449ZM9.14486 12.2791C9.86955 11.8029 10.59 11.3207 11.3063 10.8326C11.3442 10.8021 11.3754 10.7642 11.398 10.7211C11.4206 10.678 11.434 10.6308 11.4375 10.5823V8.15883C11.4375 8.15883 8.53127 10.0863 7.06595 11.0623C7.70814 11.4916 8.31611 11.9018 8.93064 12.3016C8.97845 12.3326 9.09002 12.3148 9.14486 12.2791ZM12.6488 10.811C13.3897 11.3132 14.1339 11.8104 14.8814 12.3026C14.9093 12.3165 14.94 12.3237 14.9712 12.3237C15.0023 12.3237 15.0331 12.3165 15.061 12.3026L16.9247 11.0618L12.5625 8.14523V10.646C12.5643 10.6781 12.5729 10.7094 12.5877 10.7379C12.6026 10.7663 12.6234 10.7913 12.6488 10.811ZM12.0989 11.7963C12.0638 11.7802 12.0255 11.7725 11.9869 11.7739C11.9483 11.7753 11.9106 11.7857 11.8767 11.8043C11.6508 11.9449 11.4328 12.0949 11.2125 12.2426C10.8258 12.5018 10.0242 13.0395 10.0242 13.0395L11.8449 14.2516C11.8889 14.2786 11.9393 14.2932 11.9909 14.2941C12.0425 14.295 12.0934 14.2821 12.1383 14.2568L13.9664 13.038C13.9664 13.038 12.3694 11.9759 12.0989 11.7963ZM6.60939 12.1127V13.9695L7.99783 13.0395L6.60939 12.1127Z"/>
<path d="M12 2.4977C6.20113 2.4977 1.50004 7.19879 1.50004 12.9977C1.50004 18.7966 6.20113 23.4977 12 23.4977C17.7989 23.4977 22.5 18.7966 22.5 12.9977C22.5 7.19879 17.7989 2.4977 12 2.4977ZM18.5157 14.9196C18.5157 15.1905 18.3914 15.3818 18.1636 15.5332C16.2352 16.8144 14.3088 18.0986 12.3844 19.3858C12.1102 19.5696 11.8608 19.5616 11.5875 19.3793C9.67598 18.098 7.75988 16.8219 5.83926 15.551C5.59973 15.3921 5.48348 15.1966 5.48348 14.9074V11.1696C5.48348 10.8818 5.6016 10.6849 5.84066 10.5264C7.75832 9.25473 9.6816 7.97832 11.5936 6.6977C11.8664 6.51535 12.1135 6.5102 12.3877 6.69348C14.3108 7.98129 16.2368 9.26551 18.1655 10.5461C18.3849 10.6919 18.5147 10.8719 18.5147 11.1396L18.5157 14.9196Z" fill="#666666"/>
<path d="M14.8242 13.807C14.1183 14.2864 13.4091 14.7605 12.6966 15.2292C12.5836 15.3033 12.5611 15.3844 12.5625 15.5194V17.9259L16.9219 15.0197L15.1158 13.8066C15.008 13.7311 14.9334 13.733 14.8242 13.807ZM17.3437 13.9688V12.1116L15.9567 13.043L17.3437 13.9688Z" fill="#666666"/>
</svg>
