<svg width="24" height="25" viewBox="0 0 24 25" fill="none" xmlns="http://www.w3.org/2000/svg">
<path fill-rule="evenodd" clip-rule="evenodd" d="M19.4404 5.55024C18.4696 4.57902 17.3164 3.8094 16.047 3.28568C14.7776 2.76197 13.4171 2.4945 12.044 2.49867C6.28116 2.49867 1.58991 7.16649 1.58756 12.9049C1.58502 14.7322 2.06667 16.5275 2.9835 18.1081L1.49991 23.4987L7.04288 22.0516C8.5772 22.8829 10.2948 23.3179 12.0398 23.3173H12.044C17.8063 23.3173 22.4971 18.649 22.4999 12.911C22.5034 11.5425 22.2347 10.187 21.7095 8.92333C21.1842 7.65966 20.4129 6.51305 19.4404 5.55024ZM12.044 21.5609H12.0402C10.4846 21.5613 8.9573 21.145 7.6171 20.3552L7.29975 20.1677L4.01053 21.0265L4.8885 17.8348L4.68178 17.5066C3.81196 16.1295 3.35112 14.5337 3.35288 12.9049C3.35288 8.13633 7.25335 4.25649 12.0473 4.25649C14.3469 4.25238 16.5541 5.16189 18.1832 6.78498C19.8124 8.40807 20.7301 10.6118 20.7346 12.9115C20.7327 17.6806 16.8341 21.5609 12.044 21.5609ZM16.8107 15.0832C16.5496 14.9529 15.2638 14.3238 15.0257 14.2371C14.7876 14.1504 14.6118 14.1068 14.4379 14.3674C14.264 14.6281 13.7629 15.2112 13.6105 15.387C13.4582 15.5627 13.3058 15.582 13.0448 15.4516C12.7837 15.3213 11.9413 15.0471 10.9433 14.1612C10.1666 13.4716 9.64257 12.6204 9.49022 12.3602C9.33788 12.1001 9.47382 11.959 9.6046 11.8296C9.72225 11.7129 9.86569 11.5259 9.99647 11.374C10.1273 11.2221 10.1708 11.1134 10.2576 10.9399C10.3443 10.7665 10.3012 10.6146 10.236 10.4848C10.1708 10.3549 9.64819 9.07477 9.43069 8.55399C9.21835 8.0468 9.00319 8.11571 8.84288 8.10774C8.69053 8.10024 8.51475 8.09836 8.34178 8.09836C8.20956 8.10181 8.07946 8.13247 7.95961 8.18844C7.83976 8.24441 7.73274 8.32449 7.64522 8.42368C7.40569 8.6843 6.73069 9.3143 6.73069 10.5931C6.73069 11.8718 7.66819 13.1093 7.79757 13.2827C7.92694 13.4562 9.63975 16.0826 12.2605 17.209C12.7472 17.4174 13.2444 17.6002 13.7502 17.7565C14.376 17.9543 14.9455 17.9266 15.3955 17.8596C15.8976 17.7851 16.9424 17.2306 17.1594 16.6231C17.3765 16.0156 17.3769 15.4952 17.3118 15.387C17.2466 15.2787 17.0723 15.2131 16.8107 15.0832Z" fill="#E51300"/>
</svg>
