<svg width="24" height="25" viewBox="0 0 24 25" fill="none" xmlns="http://www.w3.org/2000/svg">
<path d="M2.25789 6.30793C2.02709 6.43931 1.8353 6.62961 1.70213 6.85939C1.56896 7.08916 1.49918 7.35017 1.49992 7.61575V21.5264C1.49909 21.7855 1.56541 22.0405 1.69245 22.2664C1.81948 22.4923 2.00287 22.6815 2.22476 22.8154C2.44665 22.9493 2.69945 23.0235 2.95853 23.0307C3.2176 23.0378 3.47411 22.9777 3.70305 22.8562C3.72321 22.8454 3.74289 22.8342 3.76211 22.8215L7.70618 20.2411C7.75855 20.2069 7.80155 20.1602 7.83127 20.1052C7.86099 20.0502 7.87648 19.9886 7.87633 19.9261V3.17247C7.87652 3.10415 7.85805 3.03709 7.82291 2.97851C7.78777 2.91993 7.7373 2.87206 7.67694 2.84007C7.61658 2.80808 7.54863 2.79319 7.48042 2.797C7.41222 2.80081 7.34635 2.82317 7.28993 2.86168L2.25789 6.30793ZM9.9543 2.83778C9.89776 2.80103 9.83236 2.7802 9.76497 2.77749C9.69759 2.77479 9.63073 2.7903 9.57142 2.8224C9.51212 2.8545 9.46256 2.902 9.42798 2.95989C9.3934 3.01779 9.37507 3.08394 9.37493 3.15137V19.912C9.37478 19.9745 9.39027 20.0361 9.41998 20.0911C9.4497 20.1461 9.49271 20.1928 9.54508 20.227L14.0451 23.1529C14.1017 23.1898 14.1672 23.2108 14.2347 23.2135C14.3021 23.2163 14.3691 23.2007 14.4285 23.1686C14.4879 23.1364 14.5375 23.0888 14.5721 23.0307C14.6067 22.9727 14.6249 22.9064 14.6249 22.8389V6.08903C14.6251 6.02638 14.6096 5.96468 14.5798 5.90957C14.55 5.85447 14.5068 5.8077 14.4543 5.77356L9.9543 2.83778ZM21.7748 3.1734C21.5537 3.03811 21.3011 2.96311 21.042 2.95588C20.7829 2.94864 20.5265 3.00942 20.2982 3.13215C20.278 3.14253 20.2584 3.15411 20.2396 3.16684L16.2951 5.74497C16.2427 5.77912 16.1997 5.82583 16.17 5.88085C16.1403 5.93586 16.1248 5.99744 16.1249 6.05997V22.8159C16.1247 22.8843 16.1431 22.9514 16.1783 23.0101C16.2135 23.0688 16.264 23.1167 16.3244 23.1487C16.3849 23.1807 16.4529 23.1956 16.5212 23.1917C16.5895 23.1878 16.6554 23.1653 16.7118 23.1267L21.7307 19.6832C21.9643 19.5529 22.1588 19.3625 22.2941 19.1318C22.4293 18.901 22.5004 18.6382 22.4999 18.3707V4.49575C22.503 4.23157 22.4379 3.97107 22.3109 3.73942C22.1838 3.50778 21.9992 3.31282 21.7748 3.1734Z"/>
</svg>
