<svg width="24" height="25" viewBox="0 0 24 25" fill="none" xmlns="http://www.w3.org/2000/svg">
<path d="M15.5925 4.02499C14.6803 3.04015 13.4063 2.4978 12 2.4978C10.5863 2.4978 9.30797 3.03687 8.4 4.01562C7.48219 5.00515 7.035 6.34999 7.14 7.80218C7.34813 10.6672 9.52828 12.9978 12 12.9978C14.4717 12.9978 16.6481 10.6676 16.8595 7.80312C16.9659 6.36405 16.5159 5.02202 15.5925 4.02499ZM20.25 23.4978H3.75C3.53403 23.5006 3.32015 23.4552 3.12392 23.365C2.92769 23.2747 2.75405 23.1419 2.61563 22.9761C2.31094 22.6119 2.18813 22.1145 2.27906 21.6116C2.67469 19.4169 3.90938 17.5733 5.85 16.2791C7.57407 15.1301 9.75797 14.4978 12 14.4978C14.242 14.4978 16.4259 15.1306 18.15 16.2791C20.0906 17.5728 21.3253 19.4164 21.7209 21.6111C21.8119 22.1141 21.6891 22.6114 21.3844 22.9756C21.246 23.1415 21.0724 23.2745 20.8761 23.3648C20.6799 23.4551 20.466 23.5006 20.25 23.4978Z"/>
</svg>
