<svg width="24" height="25" viewBox="0 0 24 25" fill="none" xmlns="http://www.w3.org/2000/svg">
<path d="M19.4245 5.57479C18.4513 4.59189 17.2934 3.81099 16.0174 3.27693C14.7414 2.74288 13.3725 2.4662 11.9893 2.4628C10.6061 2.4594 9.2358 2.72933 7.95721 3.2571C6.67863 3.78486 5.51692 4.56006 4.53883 5.53815C3.56074 6.51624 2.78554 7.67795 2.25778 8.95654C1.73001 10.2351 1.46007 11.6054 1.46348 12.9886C1.46688 14.3718 1.74356 15.7408 2.27761 17.0167C2.81167 18.2927 3.59257 19.4506 4.57546 20.4239C5.54873 21.4067 6.70661 22.1877 7.98258 22.7217C9.25856 23.2558 10.6275 23.5324 12.0107 23.5358C13.3939 23.5392 14.7642 23.2693 16.0428 22.7415C17.3214 22.2138 18.4831 21.4386 19.4612 20.4605C20.4393 19.4824 21.2145 18.3207 21.7422 17.0421C22.27 15.7635 22.5399 14.3932 22.5365 13.01C22.5331 11.6268 22.2564 10.2579 21.7224 8.9819C21.1883 7.70593 20.4074 6.54805 19.4245 5.57479ZM8.625 10.7493C8.8475 10.7493 9.06501 10.8153 9.25001 10.9389C9.43502 11.0625 9.57921 11.2382 9.66436 11.4438C9.74951 11.6494 9.77179 11.8756 9.72838 12.0938C9.68497 12.312 9.57783 12.5125 9.42049 12.6698C9.26316 12.8271 9.0627 12.9343 8.84447 12.9777C8.62625 13.0211 8.40005 12.9988 8.19448 12.9137C7.98891 12.8285 7.81321 12.6843 7.68959 12.4993C7.56598 12.3143 7.5 12.0968 7.5 11.8743C7.49963 11.7265 7.52847 11.58 7.58488 11.4434C7.64128 11.3067 7.72413 11.1825 7.82867 11.078C7.93321 10.9735 8.05738 10.8906 8.19404 10.8342C8.3307 10.7778 8.47716 10.7489 8.625 10.7493ZM7.51547 17.7726C8.07797 15.8835 9.86859 14.4993 11.9977 14.4993C14.1267 14.4993 15.9173 15.8835 16.4841 17.7726C16.4999 17.8288 16.5024 17.888 16.4914 17.9453C16.4803 18.0027 16.456 18.0566 16.4204 18.1029C16.3848 18.1493 16.3389 18.1866 16.2863 18.212C16.2337 18.2374 16.1759 18.2502 16.1175 18.2493H7.88203C7.82363 18.2502 7.76583 18.2374 7.71324 18.212C7.66065 18.1866 7.61472 18.1493 7.57912 18.1029C7.54351 18.0566 7.51922 18.0027 7.50817 17.9453C7.49712 17.888 7.49962 17.8288 7.51547 17.7726ZM15.375 12.9993C15.1525 12.9993 14.935 12.9333 14.75 12.8097C14.565 12.6861 14.4208 12.5104 14.3356 12.3048C14.2505 12.0993 14.2282 11.8731 14.2716 11.6548C14.315 11.4366 14.4222 11.2362 14.5795 11.0788C14.7368 10.9215 14.9373 10.8143 15.1555 10.7709C15.3738 10.7275 15.6 10.7498 15.8055 10.835C16.0111 10.9201 16.1868 11.0643 16.3104 11.2493C16.434 11.4343 16.5 11.6518 16.5 11.8743C16.5004 12.0222 16.4715 12.1686 16.4151 12.3053C16.3587 12.4419 16.2759 12.5661 16.1713 12.6706C16.0668 12.7752 15.9426 12.858 15.806 12.9144C15.6693 12.9708 15.5228 12.9997 15.375 12.9993Z"/>
</svg>
