<svg width="24" height="25" viewBox="0 0 24 25" fill="none" xmlns="http://www.w3.org/2000/svg">
<path d="M22.5 21.9979H21.9375C21.8878 21.9979 21.8401 21.9782 21.8049 21.943C21.7698 21.9078 21.75 21.8602 21.75 21.8104V13.8187C21.7504 13.7889 21.7437 13.7594 21.7305 13.7327C21.7172 13.7059 21.6978 13.6828 21.6737 13.6651C21.6497 13.6474 21.6218 13.6357 21.5924 13.6309C21.5629 13.6262 21.5327 13.6285 21.5044 13.6378C21.0742 13.773 20.6276 13.8483 20.1769 13.8618C20.1216 13.8618 20.0691 13.8642 20.0175 13.8642C19.1507 13.8662 18.2978 13.6461 17.5402 13.2248C17.4828 13.1929 17.4183 13.1762 17.3527 13.1762C17.287 13.1762 17.2225 13.1929 17.1652 13.2248C16.4077 13.6461 15.555 13.8662 14.6883 13.8642C13.8264 13.8654 12.9791 13.6426 12.2292 13.2178C12.1714 13.185 12.1061 13.1678 12.0396 13.1678C11.9732 13.1678 11.9078 13.185 11.85 13.2178C11.0889 13.6442 10.2306 13.8671 9.35813 13.8646C8.49049 13.8652 7.63778 13.639 6.88453 13.2084C6.82625 13.1752 6.76034 13.1578 6.69328 13.1578C6.62622 13.1578 6.56032 13.1752 6.50203 13.2084C5.74879 13.639 4.89607 13.8652 4.02844 13.8646C3.97735 13.8646 3.92578 13.8646 3.87047 13.8623H3.86766C3.40115 13.8483 2.93902 13.768 2.49516 13.6237C2.46705 13.6146 2.43719 13.6123 2.40802 13.617C2.37885 13.6216 2.35119 13.6331 2.32729 13.6504C2.30339 13.6678 2.28393 13.6906 2.2705 13.7169C2.25707 13.7432 2.25005 13.7723 2.25 13.8018V21.8104C2.25 21.8602 2.23025 21.9078 2.19508 21.943C2.15992 21.9782 2.11223 21.9979 2.0625 21.9979H1.52344C1.11844 21.9979 0.768752 22.3092 0.750939 22.7142C0.74638 22.8154 0.762375 22.9165 0.797961 23.0113C0.833546 23.1062 0.887983 23.1929 0.957987 23.2661C1.02799 23.3394 1.11211 23.3977 1.20526 23.4375C1.29842 23.4774 1.39868 23.4979 1.5 23.4979H22.4766C22.8816 23.4979 23.2313 23.1867 23.2491 22.7817C23.2536 22.6805 23.2376 22.5794 23.202 22.4845C23.1665 22.3896 23.112 22.303 23.042 22.2297C22.972 22.1565 22.8879 22.0982 22.7947 22.0583C22.7016 22.0185 22.6013 21.9979 22.5 21.9979ZM10.5 18.8104C10.5 18.8602 10.4802 18.9078 10.4451 18.943C10.4099 18.9782 10.3622 18.9979 10.3125 18.9979H6.1875C6.13777 18.9979 6.09008 18.9782 6.05492 18.943C6.01976 18.9078 6 18.8602 6 18.8104V15.8104C6 15.6612 6.05927 15.5182 6.16476 15.4127C6.27024 15.3072 6.41332 15.2479 6.5625 15.2479H9.9375C10.0867 15.2479 10.2298 15.3072 10.3353 15.4127C10.4407 15.5182 10.5 15.6612 10.5 15.8104V18.8104ZM17.8125 21.9979H14.4375C14.3878 21.9979 14.3401 21.9782 14.3049 21.943C14.2698 21.9078 14.25 21.8602 14.25 21.8104V15.8104C14.25 15.6612 14.3093 15.5182 14.4148 15.4127C14.5202 15.3072 14.6633 15.2479 14.8125 15.2479H17.4375C17.5867 15.2479 17.7298 15.3072 17.8353 15.4127C17.9407 15.5182 18 15.6612 18 15.8104V21.8104C18 21.8602 17.9803 21.9078 17.9451 21.943C17.9099 21.9782 17.8622 21.9979 17.8125 21.9979ZM23.0892 8.9798L21.0773 4.36308C20.5505 3.23011 19.3472 2.49792 18.0117 2.49792H5.98594C4.65047 2.49792 3.44719 3.23011 2.92031 4.36308L0.908439 8.9798C0.486564 9.88964 1.04391 10.8239 1.04438 10.8243L1.0575 10.8454C1.08047 10.882 1.12125 10.9392 1.1461 10.9757C1.14844 10.9786 1.15031 10.9818 1.15266 10.9851L1.38703 11.2687C1.3958 11.2794 1.40519 11.2896 1.41516 11.2992L1.64953 11.5256L1.66922 11.5425C1.80686 11.6604 1.95409 11.7667 2.10938 11.8603V11.8626C2.61952 12.1716 3.20073 12.3439 3.79688 12.3628H3.91266C4.81466 12.3644 5.68379 12.0243 6.345 11.4107L6.36047 11.3962C6.42953 11.3311 6.52082 11.2949 6.61571 11.2949C6.71059 11.2949 6.80188 11.3311 6.87094 11.3962L6.88641 11.4107C7.55466 12.0232 8.42821 12.363 9.33469 12.363C10.2412 12.363 11.1147 12.0232 11.783 11.4107C11.8523 11.3466 11.9433 11.3109 12.0377 11.3109C12.1322 11.3109 12.2232 11.3466 12.2925 11.4107C12.9588 12.0213 13.8291 12.3609 14.7328 12.3629C15.6365 12.3649 16.5084 12.0291 17.1773 11.4215C17.2456 11.3583 17.3353 11.3231 17.4284 11.3231C17.5214 11.3231 17.6111 11.3583 17.6794 11.4215C18.349 12.0328 19.2247 12.369 20.1314 12.3628H20.2481C20.8293 12.3411 21.3948 12.1682 21.8888 11.8612C21.9333 11.8345 21.9759 11.8064 22.0191 11.7782C22.3522 11.5536 22.6422 11.2708 22.875 10.9434L22.9566 10.8201C22.9647 10.8076 22.9722 10.7945 22.9791 10.7807C23.0569 10.6223 23.4741 9.80761 23.0892 8.9798Z" fill="#E51300"/>
</svg>
